/* XPM */
static char *_b864dd0818e483d8462fe6a9eff3a3eKN8TlvF17P8M0yLB[] = {
/* columns rows colors chars-per-pixel */
"32 32 2 1 ",
"  c #032A0D",
". c #34DA9E",
/* pixels */
"                                ",
"                                ",
"                                ",
"                                ",
"    ....                        ",
"    ....                        ",
"  ..    ..                      ",
"  ..    ..                      ",
"                  ......        ",
"                  ......        ",
"                ..      ..      ",
"                ..      ..      ",
"                ..      ..      ",
"                ..      ..      ",
"      ....                      ",
"      ....                      ",
"                                ",
"                                ",
"                                ",
"                                ",
"                        ....    ",
"                        ....    ",
"                      ..    ..  ",
"                      ..    ..  ",
"        ......                  ",
"        ......                  ",
"      ..      ..                ",
"      ..      ..                ",
"      ..      ..                ",
"      ..      ..                ",
"                        ....    ",
"                        ....    "
};
