/* XPM */
static char *_8f9aca7f9154c1291196f40ab02f9a08fdImgbZTqjuQSfj[] = {
/* columns rows colors chars-per-pixel */
"32 32 2 1 ",
"  c #191971",
". c #4E35AE",
/* pixels */
"  ......  ......                ",
"  ......  ......                ",
"  ......  ......  ..............",
"  ......  ......  ..............",
"  ......  ......  ..............",
"  ......  ......  ..............",
"  ......  ......  ..............",
"  ......  ......  ..............",
"  ......  ......                ",
"  ......  ......                ",
"  ......  ......  ..............",
"  ......  ......  ..............",
"  ......  ......  ..............",
"  ......  ......  ..............",
"                  ..............",
"                  ..............",
"..............                  ",
"..............                  ",
"..............  ......  ......  ",
"..............  ......  ......  ",
"..............  ......  ......  ",
"..............  ......  ......  ",
"                ......  ......  ",
"                ......  ......  ",
"..............  ......  ......  ",
"..............  ......  ......  ",
"..............  ......  ......  ",
"..............  ......  ......  ",
"..............  ......  ......  ",
"..............  ......  ......  ",
"                ......  ......  ",
"                ......  ......  "
};
