/* XPM */
static char *_221130b267e4d43a450e7bd7fdb9b11gvLYHn8JzuavSiDg[] = {
/* columns rows colors chars-per-pixel */
"64 64 9 1 ",
"  c None",
". c #190E0E",
"X c #3B1255",
"o c #92610D",
"O c #7D2BB1",
"+ c #B43EFF",
"@ c #CCBEB4",
"# c #FFD4A8",
"$ c #FFFFEB",
/* pixels */
"                                                   ...          ",
"                                                   ...          ",
"                                                   ...          ",
"                                                   ...          ",
"                       .....................   ....ooo....      ",
"                       .....................   ....ooo....      ",
"                       .....................   ....ooo....      ",
"                   ....+++++++++++++++++++++.......ooo....      ",
"                   ....+++++++++++++++++++++.......ooo....      ",
"                   ....+++++++++++++++++++++.......ooo....      ",
"                   ....+++++++++++++++++++++.......ooo....      ",
"                ...++++++++++++++++++++++++++++....ooo....      ",
"                ...++++++++++++++++++++++++++++....ooo....      ",
"                ...++++++++++++++++++++++++++++....ooo....      ",
"            ....++++++++++++++..............+++++++.......      ",
"            ....++++++++++++++..............+++++++.......      ",
"            ....++++++++++++++..............+++++++.......      ",
"            ....++++++++++++++..............+++++++.......      ",
"         ...++++++++++++++.....................++++.......      ",
"         ...++++++++++++++.....................++++.......      ",
"         ...++++++++++++++.....................++++.......      ",
"         ...++++++++++++++.....................++++...          ",
"         ...++++++++++++++.....................++++...          ",
"         ...++++++++++++++.....................++++...          ",
"         ...++++++++++++++.....................++++...          ",
"     ....+++++++...+++++++.......###########...++++...          ",
"     ....+++++++...+++++++.......###########...++++...          ",
"     ....+++++++...+++++++.......###########...++++...          ",
"     ....+++++++...+++++++++++##############+++.......          ",
"     ....+++++++...+++++++++++##############+++.......          ",
"     ....+++++++...+++++++++++##############+++.......          ",
"     ....+++++++...+++++++++++##############+++.......          ",
"     ....+++....   ....+++++++++++++++++++++...oooo...          ",
"     ....+++....   ....+++++++++++++++++++++...oooo...          ",
"     ....+++....   ....+++++++++++++++++++++...oooo...          ",
"     ....+++....   ....+++++++++++++++++++++...oooo...          ",
"         ...       ....OOOOOOOOOOOOOOOOOOOOO...oooo...          ",
"         ...       ....OOOOOOOOOOOOOOOOOOOOO...oooo...          ",
"         ...       ....OOOOOOOOOOOOOOOOOOOOO...oooo...          ",
"                ...OOOOOOOXXXXOOOOOOOOOOOOOOXXX....             ",
"                ...OOOOOOOXXXXOOOOOOOOOOOOOOXXX....             ",
"                ...OOOOOOOXXXXOOOOOOOOOOOOOOXXX....             ",
"                ...OOOOOOOXXXXOOOOOOOOOOOOOOXXX....             ",
"                ...$$$$$$$XXXXOOOOOOOOOOOOOO@@@....             ",
"                ...$$$$$$$XXXXOOOOOOOOOOOOOO@@@....             ",
"                ...$$$$$$$XXXXOOOOOOOOOOOOOO@@@....             ",
"                ...$$$$$$$+++++++XXXX+++++++@@@....             ",
"                ...$$$$$$$+++++++XXXX+++++++@@@....             ",
"                ...$$$$$$$+++++++XXXX+++++++@@@....             ",
"                ...$$$$$$$+++++++XXXX+++++++@@@....             ",
"                   ....+++OOOO+++++++XXX++++.......             ",
"                   ....+++OOOO+++++++XXX++++.......             ",
"                   ....+++OOOO+++++++XXX++++.......             ",
"                ...+++++++OOOO+++++++XXX+++++++....             ",
"                ...+++++++OOOO+++++++XXX+++++++....             ",
"                ...+++++++OOOO+++++++XXX+++++++....             ",
"                ...+++++++OOOO+++++++XXX+++++++....             ",
"                ..........++++++++++++++...........             ",
"                ..........++++++++++++++...........             ",
"                ..........++++++++++++++...........             ",
"                          ..............                        ",
"                          ..............                        ",
"                          ..............                        ",
"                          ..............                        "
};
