/* XPM */
static char *_97c53b309de4d1db1e6af2e6ccec94byNnYGJLT0cLhzG55[] = {
/* columns rows colors chars-per-pixel */
"32 32 9 1 ",
"  c None",
". c #190E0E",
"X c #3B1255",
"o c #92610D",
"O c #7D2BB1",
"+ c #B43EFF",
"@ c #CCBEB4",
"# c #FFD4A8",
"$ c #FFFFEB",
/* pixels */
"                         ..     ",
"                         ..     ",
"           ........... ..oo..   ",
"         ..+++++++++++...oo..   ",
"         ..+++++++++++...oo..   ",
"        .++++++++++++++..oo..   ",
"        .++++++++++++++..oo..   ",
"      ..+++++++.......+++....   ",
"      ..+++++++.......+++....   ",
"    ..+++++++..........++....   ",
"    ..+++++++..........++..     ",
"    ..+++++++..........++..     ",
"  ..++++.++++...######.++..     ",
"  ..++++.++++...######.++..     ",
"  ..++++.++++++#######+....     ",
"  ..++++.++++++#######+....     ",
"  ..++.. ..+++++++++++.oo..     ",
"  ..++.. ..+++++++++++.oo..     ",
"    ..   ..OOOOOOOOOOO.oo..     ",
"        .OOOOXXOOOOOOOX..       ",
"        .OOOOXXOOOOOOOX..       ",
"        .$$$$XXOOOOOOO@..       ",
"        .$$$$XXOOOOOOO@..       ",
"        .$$$$+++XX++++@..       ",
"        .$$$$+++XX++++@..       ",
"         ..++OO+++XX++...       ",
"        .++++OO+++XX+++..       ",
"        .++++OO+++XX+++..       ",
"        .....+++++++.....       ",
"        .....+++++++.....       ",
"             .......            ",
"             .......            "
};
