/* XPM */
static char *ea66b49f35fb42888e78029b09a3531fuAmOOeIxDdzodI0r[] = {
/* columns rows colors chars-per-pixel */
"15 18 9 1 ",
"  c None",
". c #190E0E",
"X c #3B1255",
"o c #92610D",
"O c #7D2BB1",
"+ c #B43EFF",
"@ c #CCBEB4",
"# c #FFD4A8",
"$ c #FFFFEB",
/* pixels */
"             . ",
"     ...... .o.",
"    .++++++..o.",
"   .++++++++.o.",
"  .++++....++..",
" .++++......+..",
" .++++......+. ",
".++.++..###.+. ",
".++.+++####+.. ",
".+. .++++++.o. ",
" .  .OOOOOO.o. ",
"   .OOXOOOOX.  ",
"   .$$XOOOO@.  ",
"   .$$++X++@.  ",
"    .+O++X+..  ",
"   .++O++X++.  ",
"   ...++++...  ",
"      ....     "
};
