/* XPM */
static char *b43b0fb305e04455f3c720c0f6cec95akDfR7NT3wk8mSXUl[] = {
/* columns rows colors chars-per-pixel */
"32 32 2 1 ",
"  c #158E49",
". c #34DA9E",
/* pixels */
"                                ",
" .... .................... .... ",
" .  ...                  ...  . ",
" .      ................      . ",
" .. ........................ .. ",
"  . .                      . .  ",
" .. .                      . .. ",
" .  .                      .  . ",
" . ..                      .. . ",
" . ..                      .. . ",
" . ..                      .. . ",
" . ..                      .. . ",
" . ..                      .. . ",
" . ..                      .. . ",
" . ..                      .. . ",
" . ..                      .. . ",
" . ..                      .. . ",
" . ..                      .. . ",
" . ..                      .. . ",
" . ..                      .. . ",
" . ..                      .. . ",
" . ..                      .. . ",
" . ..                      .. . ",
" . ..                      .. . ",
" .  .                      .  . ",
" .. .                      . .. ",
"  . .                      . .  ",
" .. ........................ .. ",
" .      ................      . ",
" .  ...                  ...  . ",
" .... .................... .... ",
"                                "
};
