/* XPM */
static char *_523525ccc38439fc4ca0420fc4f7be3u2kKoC5rdzeRgR6W[] = {
/* columns rows colors chars-per-pixel */
"48 48 3 1 ",
"  c #2D233A",
". c #453D53",
"X c #5A5564",
/* pixels */
"                                                ",
"                                                ",
"                                                ",
"..................   ...XXXXXXXXXXXX...   ......",
"..................   ...XXXXXXXXXXXX...   ......",
"..................   ...XXXXXXXXXXXX...   ......",
"..................   ..................   ......",
"..................   ..................   ......",
"..................   ..................   ......",
"..................   ..................   ......",
"..................   ..................   ......",
"..................   ..................   ......",
"                                                ",
"                                                ",
"                                                ",
"XXXXXX...   ..................   ...XXXXXXXXXXXX",
"XXXXXX...   ..................   ...XXXXXXXXXXXX",
"XXXXXX...   ..................   ...XXXXXXXXXXXX",
".........   ..................   ...............",
".........   ..................   ...............",
".........   ..................   ...............",
".........   ..................   ...............",
".........   ..................   ...............",
".........   ..................   ...............",
"                                                ",
"                                                ",
"                                                ",
"..................   ...XXXXXXXXXXXX...   ......",
"..................   ...XXXXXXXXXXXX...   ......",
"..................   ...XXXXXXXXXXXX...   ......",
"..................   ..................   ......",
"..................   ..................   ......",
"..................   ..................   ......",
"..................   ..................   ......",
"..................   ..................   ......",
"..................   ..................   ......",
"                                                ",
"                                                ",
"                                                ",
"XXXXXX...   ..................   ...XXXXXXXXXXXX",
"XXXXXX...   ..................   ...XXXXXXXXXXXX",
"XXXXXX...   ..................   ...XXXXXXXXXXXX",
".........   ..................   ...............",
".........   ..................   ...............",
".........   ..................   ...............",
".........   ..................   ...............",
".........   ..................   ...............",
".........   ..................   ..............."
};
