/* XPM */
static char *_8e63f3925334a9ea64bd9180428fe18qdt9GxD1OZWyIW2M[] = {
/* columns rows colors chars-per-pixel */
"48 48 8 1 ",
"  c 0xFF",
". c #3F2631",
"X c #BD6C4A",
"o c #25956A",
"O c #EAA56C",
"+ c #43E1B3",
"@ c #8B9BB4",
"# c #C0CBDC",
/* pixels */
"                                                ",
"                                                ",
"                                                ",
"                                                ",
"                                                ",
"                                                ",
"               ..................               ",
"               ..................               ",
"               ..................               ",
"            ........................            ",
"            ........................            ",
"            ........................            ",
"            ......XXXOOOOOOXXX......            ",
"            ......XXXOOOOOOXXX......            ",
"            ......XXXOOOOOOXXX......            ",
"            ......XXXOOOOOOXXX......            ",
"            ......XXXOOOOOOXXX......            ",
"            ......XXXOOOOOOXXX......            ",
"            .........@@@@@@.........            ",
"            .........@@@@@@.........            ",
"            .........@@@@@@.........            ",
"            .........######.........            ",
"            .........######.........            ",
"            .........######.........            ",
"         .........++++++++++++.........         ",
"         .........++++++++++++.........         ",
"         .........++++++++++++.........         ",
"         ......ooo++++++++++++ooo......         ",
"         ......ooo++++++++++++ooo......         ",
"         ......ooo++++++++++++ooo......         ",
"         ......oooooooooooooooooo......         ",
"         ......oooooooooooooooooo......         ",
"         ......oooooooooooooooooo......         ",
"         ......oooooooooooooooooo......         ",
"         ......oooooooooooooooooo......         ",
"         ......oooooooooooooooooo......         ",
"         .........oooooooooooo.........         ",
"         .........oooooooooooo.........         ",
"         .........oooooooooooo.........         ",
"            ........................            ",
"            ........................            ",
"            ........................            ",
"               ..................               ",
"               ..................               ",
"               ..................               ",
"                                                ",
"                                                ",
"                                                "
};
