/* XPM */
static char *_30f2c727e6247cdc68a7d53e343a768mLePmTcllj6nIyYU[] = {
/* columns rows colors chars-per-pixel */
"48 48 7 1 ",
"  c #3F2631",
". c #763B36",
"X c #262B44",
"o c #52607C",
"O c #BD6C4A",
"+ c #8B9BB4",
"@ c #C0CBDC",
/* pixels */
"ooooooXXXXXXXXXXXXXXXXXXXXXXXXXXXXXXXXXXXXoooooo",
"ooooooXXXXXXXXXXXXXXXXXXXXXXXXXXXXXXXXXXXXoooooo",
"ooooooXXXXXXXXXXXXXXXXXXXXXXXXXXXXXXXXXXXXoooooo",
"+++XXXXXXXXXXXXXXXXXXXXXXXXXXXXXXXXXXXXXXXXXX+++",
"+++XXXXXXXXXXXXXXXXXXXXXXXXXXXXXXXXXXXXXXXXXX+++",
"+++XXXXXXXXXXXXXXXXXXXXXXXXXXXXXXXXXXXXXXXXXX+++",
"XXXXXXXXX++++++++++++oooooo++++++++++++XXXXXXXXX",
"XXXXXXXXX++++++++++++oooooo++++++++++++XXXXXXXXX",
"XXXXXXXXX++++++++++++oooooo++++++++++++XXXXXXXXX",
"XXXXXX+++ooo                        ooo+++XXXXXX",
"XXXXXX+++ooo                        ooo+++XXXXXX",
"XXXXXX+++ooo                        ooo+++XXXXXX",
"XXXXXX+++                              +++XXXXXX",
"XXXXXX+++                              +++XXXXXX",
"XXXXXX+++                              +++XXXXXX",
"XXXXXX+++      ...OOOOOOOOOOOO...      +++XXXXXX",
"XXXXXX+++      ...OOOOOOOOOOOO...      +++XXXXXX",
"XXXXXX+++      ...OOOOOOOOOOOO...      +++XXXXXX",
"XXXXXX@@@      OOO............OOO      @@@XXXXXX",
"XXXXXX@@@      OOO............OOO      @@@XXXXXX",
"XXXXXX@@@      OOO............OOO      @@@XXXXXX",
"XXXoooooo      OOO............OOO      ooooooXXX",
"XXXoooooo      OOO............OOO      ooooooXXX",
"XXXoooooo      OOO............OOO      ooooooXXX",
"XXXoooooo      OOO............OOO      ooooooXXX",
"XXXoooooo      OOO............OOO      ooooooXXX",
"XXXoooooo      OOO............OOO      ooooooXXX",
"XXXXXX+++      OOO............OOO      +++XXXXXX",
"XXXXXX+++      OOO............OOO      +++XXXXXX",
"XXXXXX+++      OOO............OOO      +++XXXXXX",
"XXXXXX+++      OOO...++++++...OOO      +++XXXXXX",
"XXXXXX+++      OOO...++++++...OOO      +++XXXXXX",
"XXXXXX+++      OOO...++++++...OOO      +++XXXXXX",
"XXXXXX@@@      OOO...++++++...OOO      @@@XXXXXX",
"XXXXXX@@@      OOO...++++++...OOO      @@@XXXXXX",
"XXXXXX@@@      OOO...++++++...OOO      @@@XXXXXX",
"XXXoooooo      OOO...      ...OOO      ooooooXXX",
"XXXoooooo      OOO...      ...OOO      ooooooXXX",
"XXXoooooo      OOO...      ...OOO      ooooooXXX",
"XXXoooooo      OOO............OOO      ooooooXXX",
"XXXoooooo      OOO............OOO      ooooooXXX",
"XXXoooooo      OOO............OOO      ooooooXXX",
"XXXXXX+++      OOO............OOO      +++XXXXXX",
"XXXXXX+++      OOO............OOO      +++XXXXXX",
"XXXXXX+++      OOO............OOO      +++XXXXXX",
"XXXXXX+++      OOOOOOOOOOOOOOOOOO      +++XXXXXX",
"XXXXXX+++      OOOOOOOOOOOOOOOOOO      +++XXXXXX",
"XXXXXX+++      OOOOOOOOOOOOOOOOOO      +++XXXXXX"
};
