/* XPM */
static char *_eae901c61ca48eb99565296d3aa3031MQ7dgK3EiCkfaPcR[] = {
/* columns rows colors chars-per-pixel */
"48 48 10 1 ",
"  c none",
". c #3F2631",
"X c #262B44",
"o c #BD6C4A",
"O c #9B4CA3",
"+ c #D176D0",
"@ c #8B9BB4",
"# c #F7C282",
"$ c #AAB7CC",
"% c #C0CBDC",
/* pixels */
"         ..................                     ",
"         ..................                     ",
"         ..................                     ",
"      ...........................               ",
"      ...........................               ",
"      ...........................               ",
"   .........OOOOOOOOOOOO............            ",
"   .........OOOOOOOOOOOO............            ",
"   .........OOOOOOOOOOOO............            ",
"   ......OOO...OOOOOOOOOOOOOOO............      ",
"   ......OOO...OOOOOOOOOOOOOOO............      ",
"   ......OOO...OOOOOOOOOOOOOOO............      ",
"   ............OOOOOOOOOOOOOOOOOO............   ",
"   ............OOOOOOOOOOOOOOOOOO............   ",
"   ............OOOOOOOOOOOOOOOOOO............   ",
"   ......OOO++++++++++++++++++++++++OOO......   ",
"   ......OOO++++++++++++++++++++++++OOO......   ",
"   ......OOO++++++++++++++++++++++++OOO......   ",
"   ......+++OOO..................OOO+++......   ",
"   ......+++OOO..................OOO+++......   ",
"   ......+++OOO..................OOO+++......   ",
"   ......OOO@@@##################@@@OOO......   ",
"   ......OOO@@@##################@@@OOO......   ",
"   ......OOO@@@##################@@@OOO......   ",
"   .........@@@###XXXXXX###XXXXXX###.........   ",
"   .........@@@###XXXXXX###XXXXXX###.........   ",
"   .........@@@###XXXXXX###XXXXXX###.........   ",
"   ............######%%%%%%%%%###.........      ",
"   ............######%%%%%%%%%###.........      ",
"   ............######%%%%%%%%%###.........      ",
"............OOO###@@@#########@@@OOO.........   ",
"............OOO###@@@#########@@@OOO.........   ",
"............OOO###@@@#########@@@OOO.........   ",
"......######OOOOOO%%%%%%%%%%%%%%%OOO######......",
"......######OOOOOO%%%%%%%%%%%%%%%OOO######......",
"......######OOOOOO%%%%%%%%%%%%%%%OOO######......",
"......######OOOOOO%%%%%%%%%%%%%%%OOO######......",
"......######OOOOOO%%%%%%%%%%%%%%%OOO######......",
"......######OOOOOO%%%%%%%%%%%%%%%OOO######......",
"......OOOOOO...ooo%%%%%%%%%%%%%%%...OOOOOO......",
"......OOOOOO...ooo%%%%%%%%%%%%%%%...OOOOOO......",
"......OOOOOO...ooo%%%%%%%%%%%%%%%...OOOOOO......",
"......OOOOOO...OOOOOO%%%%%%$$$OOO...OOOOOO......",
"......OOOOOO...OOOOOO%%%%%%$$$OOO...OOOOOO......",
"......OOOOOO...OOOOOO%%%%%%$$$OOO...OOOOOO......",
"   .........OOOOOO%%%%%%%%%OOOOOO............   ",
"   .........OOOOOO%%%%%%%%%OOOOOO............   ",
"   .........OOOOOO%%%%%%%%%OOOOOO............   "
};
