/* XPM */
static char *_286af9660a2468881c6fc57e8c17babKeWCRGZPgZr3jvv8[] = {
/* columns rows colors chars-per-pixel */
"48 48 3 1 ",
"  c #52607C",
". c #8B9BB4",
"X c #C0CBDC",
/* pixels */
"                                                ",
"                                                ",
"                                                ",
"..................   ...XXXXXXXXXXXX...   ......",
"..................   ...XXXXXXXXXXXX...   ......",
"..................   ...XXXXXXXXXXXX...   ......",
"..................   ..................   ......",
"..................   ..................   ......",
"..................   ..................   ......",
"..................   ..................   ......",
"..................   ..................   ......",
"..................   ..................   ......",
"                                                ",
"                                                ",
"                                                ",
"XXXXXX...   ..................   ...XXXXXXXXXXXX",
"XXXXXX...   ..................   ...XXXXXXXXXXXX",
"XXXXXX...   ..................   ...XXXXXXXXXXXX",
".........   ..................   ...............",
".........   ..................   ...............",
".........   ..................   ...............",
".........   ..................   ...............",
".........   ..................   ...............",
".........   ..................   ...............",
"                                                ",
"                                                ",
"                                                ",
"..................   ...XXXXXXXXXXXX...   ......",
"..................   ...XXXXXXXXXXXX...   ......",
"..................   ...XXXXXXXXXXXX...   ......",
"..................   ..................   ......",
"..................   ..................   ......",
"..................   ..................   ......",
"..................   ..................   ......",
"..................   ..................   ......",
"..................   ..................   ......",
"                                                ",
"                                                ",
"                                                ",
"XXXXXX...   ..................   ...XXXXXXXXXXXX",
"XXXXXX...   ..................   ...XXXXXXXXXXXX",
"XXXXXX...   ..................   ...XXXXXXXXXXXX",
".........   ..................   ...............",
".........   ..................   ...............",
".........   ..................   ...............",
".........   ..................   ...............",
".........   ..................   ...............",
".........   ..................   ..............."
};
